<svg xmlns="http://www.w3.org/2000/svg" width="111.438" height="30.668" viewBox="0 0 111.438 30.668"><path d="M18.327-20.418a1.166,1.166,0,0,1-.164.656,1.058,1.058,0,0,1-.41.369,1.737,1.737,0,0,1-.492.164,2.577,2.577,0,0,1-.41.041,1.012,1.012,0,0,1-.963-.683q-.308-.683-.738-1.49a4.925,4.925,0,0,0-1.271-1.49,4.093,4.093,0,0,0-2.6-.683,3.849,3.849,0,0,0-1.886.451,4.5,4.5,0,0,0-1.373,1.148A4.773,4.773,0,0,0,7.2-20.4a5.472,5.472,0,0,0-.266,1.66,5.962,5.962,0,0,0,.472,2.4,7.639,7.639,0,0,0,1.332,2.05,15.39,15.39,0,0,0,2.05,1.886q1.189.923,2.583,1.947,1.189.861,2.317,1.763a14.985,14.985,0,0,1,2.009,1.927,9.234,9.234,0,0,1,1.414,2.194,6,6,0,0,1,.533,2.522,3.715,3.715,0,0,1-.84,2.5A6.168,6.168,0,0,1,16.687,2.03a10.026,10.026,0,0,1-2.808.82,20.486,20.486,0,0,1-2.973.225,19.985,19.985,0,0,1-3.034-.246A11.746,11.746,0,0,1,4.92,1.989,6.859,6.859,0,0,1,2.686.472,3.167,3.167,0,0,1,1.8-1.8a2.367,2.367,0,0,1,.841-1.927A5.542,5.542,0,0,1,5.084-4.756q-.082.246-.348.84A4.034,4.034,0,0,0,4.469-2.3,2.419,2.419,0,0,0,5.207-.451,5,5,0,0,0,6.97.615a8.591,8.591,0,0,0,2.111.472q1.087.1,1.784.1a6.665,6.665,0,0,0,1.25-.164A8.42,8.42,0,0,0,13.694.534a4.126,4.126,0,0,0,1.332-.88,1.812,1.812,0,0,0,.554-1.33,2.589,2.589,0,0,0-.389-1.29,8.047,8.047,0,0,0-1.045-1.392,17.332,17.332,0,0,0-1.517-1.453q-.861-.737-1.845-1.474Q9.348-8.39,7.954-9.537a23.174,23.174,0,0,1-2.5-2.374,12.479,12.479,0,0,1-1.8-2.558,5.96,5.96,0,0,1-.7-2.8,8.042,8.042,0,0,1,.84-3.827A7.511,7.511,0,0,1,5.966-23.66,9.021,9.021,0,0,1,8.9-25.093a11.468,11.468,0,0,1,3.116-.45,16.444,16.444,0,0,1,2.4.184,13.488,13.488,0,0,1,2.3.533,5.381,5.381,0,0,1,1.722.9,1.634,1.634,0,0,1,.677,1.292,1.766,1.766,0,0,1-.389,1.087A1.821,1.821,0,0,0,18.327-20.418ZM36.9-5.822A8.318,8.318,0,0,1,36.552-4.2a9.015,9.015,0,0,1-.9,2.05A6.663,6.663,0,0,1,34.132-.39,3.4,3.4,0,0,1,31.9.369a2.786,2.786,0,0,1-2.03-.738A4.635,4.635,0,0,1,28.721-2.4a13.472,13.472,0,0,1-.492-3.1q-.1-1.8-.1-3.936v-.922q0-.554.041-.964a16.319,16.319,0,0,0-.984,2.276q-.492,1.373-.882,2.932t-.636,3.178A25.184,25.184,0,0,0,25.379.123q-.41.082-.882.205a4.323,4.323,0,0,1-1.087.123A4.7,4.7,0,0,1,22.837.41a2.883,2.883,0,0,1-.656-.164A1.53,1.53,0,0,1,21.628-.1.8.8,0,0,1,21.4-.7a1.2,1.2,0,0,1,.144-.369,2.985,2.985,0,0,0,.143-1.148V-25.789a1.469,1.469,0,0,0-.143-.779.836.836,0,0,1-.144-.492q0-.164.287-.267a3.83,3.83,0,0,1,.656-.164,6.778,6.778,0,0,1,.758-.082q.39-.02.636-.021a5.733,5.733,0,0,1,2.173.451q-.205,1.107-.39,2.931t-.348,3.772q-.164,1.948-.246,3.731t-.082,2.767v.307q0,.185-.021.943t-.041,2.358q-.02,1.6-.062,4.51,0-.041.184-.779t.472-1.845q.287-1.107.677-2.378t.82-2.358a11.123,11.123,0,0,1,.882-1.8q.451-.718.861-.718a5.954,5.954,0,0,1,1.25.185,1.342,1.342,0,0,1,1,.635,2.037,2.037,0,0,0,.348.7,3.682,3.682,0,0,0,.328.328,2.088,2.088,0,0,1,.246.246.566.566,0,0,1,.1.369q-.041.123-.185.82t-.287,1.742q-.144,1.046-.267,2.3T31.037-5.9a12.187,12.187,0,0,0,.287,2.829q.287,1.189,1.107,1.189a1.917,1.917,0,0,0,1.353-.492,3.937,3.937,0,0,0,.882-1.23A7.4,7.4,0,0,0,35.2-5.187q.185-.84.308-1.5.2-.861.615-.861a.668.668,0,0,1,.635.328,1.749,1.749,0,0,1,.185.861ZM51.209-4.469a5.651,5.651,0,0,1-.41,1.353,7.736,7.736,0,0,1-.84,1.5A5.263,5.263,0,0,1,48.77-.41a2.486,2.486,0,0,1-1.5.492,2.92,2.92,0,0,1-2.153-.943,4.439,4.439,0,0,1-1.127-2.665q-.246.656-.574,1.517a8.015,8.015,0,0,1-.82,1.6A5.533,5.533,0,0,1,41.472.84a2.312,2.312,0,0,1-1.5.513,1.244,1.244,0,0,1-.369-.041q-.123-.041-.266-.1a1.857,1.857,0,0,0-.328-.1,2.487,2.487,0,0,0-.512-.041A2.334,2.334,0,0,1,36.839.431a4.623,4.623,0,0,1-1.086-1.62,9.383,9.383,0,0,1-.595-2.153,14.1,14.1,0,0,1-.184-2.194,39.14,39.14,0,0,1,.266-4.674,17.8,17.8,0,0,1,.882-3.915,7.4,7.4,0,0,1,1.6-2.706,3.207,3.207,0,0,1,2.378-1,4.169,4.169,0,0,1,1.25.143,6.1,6.1,0,0,1,.8.328q.369.184.8.389a4.559,4.559,0,0,0,1.21.328,2.94,2.94,0,0,1,1.209,1.168,4.409,4.409,0,0,1,.451,1.456,9.027,9.027,0,0,1,.061,1.62,8.406,8.406,0,0,0,.082,1.66q0,.041.185.123t.431.185a1.321,1.321,0,0,1,.431.287.639.639,0,0,1,.184.472v.164A7.423,7.423,0,0,0,46.7-7.626q-.082.82-.082,1.968,0,.574.061,1.251a8.821,8.821,0,0,0,.205,1.271,2.717,2.717,0,0,0,.431.984.879.879,0,0,0,.738.39,1.117,1.117,0,0,0,.882-.492,4.787,4.787,0,0,0,.656-1.128,11.127,11.127,0,0,0,.451-1.292,7.427,7.427,0,0,0,.225-.984q.082-.492.41-.492a.514.514,0,0,1,.39.226,1.3,1.3,0,0,1,.184.8v.307A1.824,1.824,0,0,1,51.209-4.469Zm-7.585-6.642a8.219,8.219,0,0,0-.082-1.066,5.045,5.045,0,0,0-.287-1.148,2.309,2.309,0,0,0-.615-.9,1.593,1.593,0,0,0-1.107-.369,2.176,2.176,0,0,0-1.866,1.046,8.492,8.492,0,0,0-1.128,2.46,14.777,14.777,0,0,0-.533,2.911q-.123,1.5-.123,2.358,0,.656.062,1.578A13.451,13.451,0,0,0,38.171-2.5a5.049,5.049,0,0,0,.472,1.394.909.909,0,0,0,.8.574,2.081,2.081,0,0,0,1.825-.923,6.8,6.8,0,0,0,.964-2.3A20.839,20.839,0,0,0,42.7-6.7q.143-1.578.266-2.891a1.182,1.182,0,0,1,.369-.882q.287-.184.287-.266ZM56.252-8.938a8.167,8.167,0,0,0-1,1.907,21.2,21.2,0,0,0-.676,2.173Q54.284-3.731,54.1-2.6T53.71-.451q-.082.246-.636.328a6.2,6.2,0,0,1-.8.082,7.288,7.288,0,0,1-1.209-.082,1.125,1.125,0,0,1-.717-.389,2.184,2.184,0,0,1-.369-.943,15.7,15.7,0,0,1-.2-1.7l.533-12.177q0-.533.574-.533a3.739,3.739,0,0,1,.574.061,6.358,6.358,0,0,1,.779.185,2.744,2.744,0,0,1,.7.307.52.52,0,0,1,.287.431V-6.56a1.13,1.13,0,0,0,.123-.328q.287-.738.7-1.825a21.975,21.975,0,0,1,.9-2.071,9.613,9.613,0,0,1,1.046-1.681,1.508,1.508,0,0,1,1.127-.7,1.638,1.638,0,0,1,1.127.349,2.238,2.238,0,0,1,.595.881,3.9,3.9,0,0,1,.246,1.148q.041.615.041,1.189,0,.41-.082,1.353t-.082,2.829a8.335,8.335,0,0,0,.205,1.927q.205.861.82.861a1.089,1.089,0,0,0,.82-.41,4.6,4.6,0,0,0,.677-1.025,7.931,7.931,0,0,0,.513-1.312,6.107,6.107,0,0,0,.246-1.312q.041-.779.615-.779a.5.5,0,0,1,.492.246,1.268,1.268,0,0,1,.123.574v.082a9.255,9.255,0,0,1-.307,1.845,7.913,7.913,0,0,1-.779,1.927,4.9,4.9,0,0,1-1.332,1.517,3.253,3.253,0,0,1-2.009.615,2.232,2.232,0,0,1-2.357-1.333,11.619,11.619,0,0,1-.513-3.957Zm5.617,1.517q.041-2.091.123-4.264t.164-4.018q0-.328-.656-.451T60.024-16.4a6.464,6.464,0,0,1-1.476-.39.912.912,0,0,1-.656-.882q0-.533,1.066-.615t3.157-.082q.164,0,.225-.492t.082-1.251q.021-.759.041-1.619t.062-1.619a8.58,8.58,0,0,1,.144-1.25q.1-.492.266-.492a5.785,5.785,0,0,1,.738.082q.533.082,1.107.225a5.374,5.374,0,0,1,1,.349q.431.205.431.451l-.451,5.33q0,.246.431.348a5.658,5.658,0,0,0,1.107.123q.676.02,1.435.021a8.017,8.017,0,0,1,1.435.123,3.181,3.181,0,0,1,1.107.389.879.879,0,0,1,.43.8.774.774,0,0,1-.082.267q-.082.184-.2.184a.411.411,0,0,1-.226-.123,1.4,1.4,0,0,0-.758-.123q-.164,0-.9.041t-1.558.123q-.82.082-1.5.184t-.758.266a6.086,6.086,0,0,0-.1.964q-.062.881-.123,2.316t-.1,3.3q-.041,1.865-.041,3.916a13.732,13.732,0,0,0,.082,1.517,8.6,8.6,0,0,0,.246,1.332,3.006,3.006,0,0,0,.431.964.772.772,0,0,0,.635.369,1.371,1.371,0,0,0,.984-.451,4.373,4.373,0,0,0,.82-1.23A11.924,11.924,0,0,0,69.208-4.8q.287-.984.492-2.009a2.858,2.858,0,0,1,.287-.882.54.54,0,0,1,.492-.266.787.787,0,0,1,.512.185q.226.185.226.84a2.122,2.122,0,0,1-.041.533q-.123.738-.472,2.029a15.037,15.037,0,0,1-.943,2.542A8.883,8.883,0,0,1,68.306.369a2.644,2.644,0,0,1-2.009.943A3.055,3.055,0,0,1,64.37.677,4.924,4.924,0,0,1,63-1.087a10.359,10.359,0,0,1-.84-2.665,17.988,17.988,0,0,1-.287-3.3ZM86.182-4.469a5.651,5.651,0,0,1-.41,1.353,7.736,7.736,0,0,1-.84,1.5A5.263,5.263,0,0,1,83.743-.41a2.486,2.486,0,0,1-1.5.492,2.92,2.92,0,0,1-2.152-.943,4.439,4.439,0,0,1-1.128-2.665q-.246.656-.574,1.517a8.016,8.016,0,0,1-.82,1.6A5.533,5.533,0,0,1,76.445.84a2.312,2.312,0,0,1-1.5.513,1.244,1.244,0,0,1-.369-.041q-.123-.041-.267-.1a1.857,1.857,0,0,0-.328-.1,2.487,2.487,0,0,0-.513-.041,2.334,2.334,0,0,1-1.66-.635,4.623,4.623,0,0,1-1.087-1.62,9.384,9.384,0,0,1-.594-2.153,14.1,14.1,0,0,1-.185-2.194,39.14,39.14,0,0,1,.267-4.674,17.8,17.8,0,0,1,.882-3.915,7.4,7.4,0,0,1,1.6-2.706,3.207,3.207,0,0,1,2.378-1,4.169,4.169,0,0,1,1.251.143,6.1,6.1,0,0,1,.8.328q.369.184.8.389a4.559,4.559,0,0,0,1.21.328,2.94,2.94,0,0,1,1.209,1.168,4.409,4.409,0,0,1,.451,1.456,9.028,9.028,0,0,1,.062,1.62,8.4,8.4,0,0,0,.082,1.66q0,.041.184.123t.431.185a1.321,1.321,0,0,1,.43.287.639.639,0,0,1,.185.472v.164a7.423,7.423,0,0,0-.492,1.886q-.082.82-.082,1.968,0,.574.062,1.251a8.819,8.819,0,0,0,.205,1.271,2.717,2.717,0,0,0,.43.984.879.879,0,0,0,.738.39,1.117,1.117,0,0,0,.882-.492,4.786,4.786,0,0,0,.656-1.128,11.127,11.127,0,0,0,.451-1.292,7.428,7.428,0,0,0,.225-.984q.082-.492.41-.492a.514.514,0,0,1,.39.226,1.3,1.3,0,0,1,.185.8v.307A1.824,1.824,0,0,1,86.182-4.469ZM78.6-11.111a8.219,8.219,0,0,0-.082-1.066,5.044,5.044,0,0,0-.287-1.148,2.309,2.309,0,0,0-.615-.9,1.593,1.593,0,0,0-1.107-.369,2.176,2.176,0,0,0-1.866,1.046,8.493,8.493,0,0,0-1.128,2.46A14.777,14.777,0,0,0,72.98-8.18q-.123,1.5-.123,2.358,0,.656.062,1.578A13.45,13.45,0,0,0,73.144-2.5a5.048,5.048,0,0,0,.471,1.394.909.909,0,0,0,.8.574,2.081,2.081,0,0,0,1.825-.923,6.8,6.8,0,0,0,.964-2.3A20.838,20.838,0,0,0,77.674-6.7q.143-1.578.267-2.891a1.182,1.182,0,0,1,.369-.882q.287-.184.287-.266ZM91.225-8.938a8.167,8.167,0,0,0-1,1.907,21.2,21.2,0,0,0-.676,2.173q-.287,1.128-.472,2.255T88.683-.451q-.082.246-.635.328a6.2,6.2,0,0,1-.8.082,7.288,7.288,0,0,1-1.21-.082,1.125,1.125,0,0,1-.717-.389,2.184,2.184,0,0,1-.369-.943,15.7,15.7,0,0,1-.205-1.7l.533-12.177q0-.533.574-.533a3.739,3.739,0,0,1,.574.061,6.358,6.358,0,0,1,.779.185,2.744,2.744,0,0,1,.7.307.52.52,0,0,1,.287.431V-6.56a1.13,1.13,0,0,0,.123-.328q.287-.738.7-1.825a21.975,21.975,0,0,1,.9-2.071,9.613,9.613,0,0,1,1.045-1.681,1.508,1.508,0,0,1,1.128-.7,1.638,1.638,0,0,1,1.128.349,2.238,2.238,0,0,1,.594.881,3.9,3.9,0,0,1,.246,1.148q.041.615.041,1.189,0,.41-.082,1.353t-.082,2.829a8.335,8.335,0,0,0,.2,1.927q.2.861.82.861a1.089,1.089,0,0,0,.82-.41,4.6,4.6,0,0,0,.676-1.025,7.93,7.93,0,0,0,.512-1.312,6.107,6.107,0,0,0,.246-1.312q.041-.779.615-.779a.5.5,0,0,1,.492.246,1.268,1.268,0,0,1,.123.574v.082a9.255,9.255,0,0,1-.308,1.845,7.913,7.913,0,0,1-.779,1.927,4.9,4.9,0,0,1-1.333,1.517,3.253,3.253,0,0,1-2.009.615,2.232,2.232,0,0,1-2.358-1.333,11.619,11.619,0,0,1-.512-3.957ZM107.3-1.886a6.118,6.118,0,0,1-1.353-2.5,5.764,5.764,0,0,0-.307,1.066,10.242,10.242,0,0,1-.554,1.7,6.307,6.307,0,0,1-.963,1.6,1.863,1.863,0,0,1-1.5.718Q100,.7,99.015-.82a9.242,9.242,0,0,1-1.148-4.469V-15.17q.082-.287.1-.41t.348-.123a5.342,5.342,0,0,1,.717.082,10.256,10.256,0,0,1,1.046.225,4.06,4.06,0,0,1,.964.389q.431.246.431.574v7.257q0,.738.021,1.64a14.991,14.991,0,0,0,.123,1.661,4.27,4.27,0,0,0,.349,1.271.763.763,0,0,0,.7.513q1.189,0,1.845-2.4a33.412,33.412,0,0,0,.738-7.564,1.456,1.456,0,0,0-.164-.656,1.724,1.724,0,0,1-.164-.779q.082-.328.676-.41a8.005,8.005,0,0,1,1.087-.082,4.888,4.888,0,0,1,1.8.246q.574.246.574,1.476-.082.738-.144,1.169t-.082.779q-.02.348-.041.738t-.021,1.127q0,.943.082,1.968a12.441,12.441,0,0,0,.287,1.886,5.612,5.612,0,0,0,.512,1.414.909.909,0,0,0,.8.553.9.9,0,0,0,.7-.266,3.994,3.994,0,0,0,.451-.595q.2-.328.41-.595a.683.683,0,0,1,.574-.266.569.569,0,0,1,.492.226.74.74,0,0,1,.164.431,2.163,2.163,0,0,1-.39,1.312,3.145,3.145,0,0,1-.943.861,4.213,4.213,0,0,1-1.127.471,4.055,4.055,0,0,1-.943.143,3.784,3.784,0,0,1-1.189-.164,4.139,4.139,0,0,1-.984-.492Z" transform="translate(-1.804 27.593)" fill="#fff"/></svg>